<?xml version="1.0" encoding="utf-8"?>
<!-- Generator: Adobe Illustrator 25.2.3, SVG Export Plug-In . SVG Version: 6.00 Build 0)  -->
<svg version="1.1" id="Layer_1" xmlns="http://www.w3.org/2000/svg" xmlns:xlink="http://www.w3.org/1999/xlink" x="0px" y="0px"
	 viewBox="0 0 200 200" style="enable-background:new 0 0 200 200;" xml:space="preserve">
<style type="text/css">
	.st0{fill:#D4765D;}
	.st1{fill:#C15C48;}
</style>
<g>
	<g>
		<path class="st0" d="M155.6,96.2c-7.2-1.3-14.2,3.5-15.5,10.7c-3.6,19.7-20.8,34-40.9,33.9C76.5,140.6,58,122,58.1,99.2
			C58.2,76.5,76.8,58,99.6,58.1c1.7,0,3.3,0.1,5,0.3c7.2,0.9,13.9-4.3,14.9-11.6c0.9-7.3-4.3-13.9-11.6-14.9
			c-2.7-0.3-5.5-0.5-8.2-0.5c-37.4-0.1-68.1,30.3-68.2,67.8s30.3,68.1,67.8,68.3c33,0.1,61.2-23.3,67.2-55.8
			C167.7,104.4,162.9,97.4,155.6,96.2z M94.1,83.2c-5.2-5.2-13.6-5.2-18.8,0c-5.2,5.2-5.2,13.6,0,18.8l24.2,24.2L163.8,62
			c5.2-5.2,5.2-13.6,0-18.8s-13.6-5.2-18.8,0L99.5,88.6L94.1,83.2z"/>
	</g>
	<polygon class="st1" points="99.5,88.6 118.3,107.4 105.7,82.5 	"/>
</g>
</svg>
