<?xml version="1.0" encoding="utf-8"?>
<!-- Generator: Adobe Illustrator 25.2.3, SVG Export Plug-In . SVG Version: 6.00 Build 0)  -->
<svg version="1.1" id="Layer_1" xmlns="http://www.w3.org/2000/svg" xmlns:xlink="http://www.w3.org/1999/xlink" x="0px" y="0px"
	 viewBox="0 0 200 200" style="enable-background:new 0 0 200 200;" xml:space="preserve">
<style type="text/css">
	.st0{fill:#53A8DD;}
	.st1{fill:#3A6EB5;}
</style>
<circle class="st0" cx="97.7" cy="54.2" r="15.8"/>
<path class="st1" d="M148.7,132.3c-20.7,0-38.3-12.5-38.3-27.3c0-14.8,17.5-27.3,38.3-27.3c5.8,0,10.5-4.7,10.5-10.5
	s-4.7-10.5-10.5-10.5c-20.6,0-38.8,8.6-49.4,21.6c5.8,7.8,9.2,16.9,9.2,26.6c0,9.8-3.4,18.9-9.2,26.6c10.6,13,28.8,21.6,49.4,21.6
	c5.8,0,10.5-4.7,10.5-10.5S154.5,132.3,148.7,132.3z"/>
<g>
	<path class="st0" d="M46.7,153.3c-5.8,0-10.5-4.7-10.5-10.5s4.7-10.5,10.5-10.5c20.7,0,38.3-12.5,38.3-27.3
		c0-14.8-17.5-27.3-38.3-27.3c-5.8,0-10.5-4.7-10.5-10.5s4.7-10.5,10.5-10.5c32.7,0,59.3,21.7,59.3,48.3
		C106,131.6,79.4,153.3,46.7,153.3z"/>
</g>
</svg>
