<?xml version="1.0" encoding="utf-8"?>
<!-- Generator: Adobe Illustrator 25.2.3, SVG Export Plug-In . SVG Version: 6.00 Build 0)  -->
<svg version="1.1" id="Layer_1" xmlns="http://www.w3.org/2000/svg" xmlns:xlink="http://www.w3.org/1999/xlink" x="0px" y="0px"
	 viewBox="0 0 200 200" style="enable-background:new 0 0 200 200;" xml:space="preserve">
<style type="text/css">
	.st0{fill:#696059;}
	.st1{fill:#AF132A;}
</style>
<g>
	<path class="st0" d="M101.5,129l31.1-80h26.6v112h-21.3V78.3c-0.8,5.8-1,7.1-4.2,16.6L108,161.1H88.8L101.5,129z"/>
</g>
<g>
	<path class="st1" d="M82.8,29.1c-0.1,0-0.2,0-0.3,0c-0.1,0-0.2,0-0.4,0c16,18.6,14.5,43.1,3.4,68.6L67.4,49.1H40.8v112h20.3V78.3
		c1.7,9.5,2.2,11.2,4.2,17.8l8.1,22.4l8.1,22.5l4.8,13.5l2.7-6.6c-7.6-18.9-5.2-34.9-0.2-46.2c4.8-10.9,12.2-19.6,16.2-23.1
		c0.1,0,0.4,0,0.5,0c-9.1,10-14,32.9-9.9,46.2l1.1,3c0,0,0,0.1,0.1,0.1c3.4-8.8,4.7-12.3,6.2-15.9C123.2,61.2,89.6,33.1,82.8,29.1z"
		/>
</g>
</svg>
