<?xml version="1.0" encoding="utf-8"?>
<!-- Generator: Adobe Illustrator 25.2.3, SVG Export Plug-In . SVG Version: 6.00 Build 0)  -->
<svg version="1.1" id="Layer_1" xmlns="http://www.w3.org/2000/svg" xmlns:xlink="http://www.w3.org/1999/xlink" x="0px" y="0px"
	 viewBox="0 0 200 200" style="enable-background:new 0 0 200 200;" xml:space="preserve">
<style type="text/css">
	.st0{fill-rule:evenodd;clip-rule:evenodd;fill:#006635;}
</style>
<path class="st0" d="M132.5,77.9c0.6,0,1.2,0,1.7,0c-0.1,5,0,10.5-0.1,15c-0.7,0-1.3,0-2,0c-1-3.3-2-6.6-4-9.1
	c-2-2.4-4.6-4.5-8.9-4.2c-3.9,0.3-7,3.4-6.5,8.3c0,0.4,0.3,1.3,0.6,1.8c1.6,2.9,4.9,4.1,8.5,5.2c3.5,1.1,7,2.1,9.7,4
	c2.8,2,4.8,4.8,4.8,9c0,6.1-4.2,10.2-8.5,12.1c-1.5,0.7-3.4,1.1-5.6,0.9c-3.3-0.2-5.5-1.2-7.8-2.5c-0.7-0.4-1.5-1-2.4-1
	c-2.2,0.1-1.8,3.1-4.9,2.4c-0.1-5.1-0.1-10.3-0.1-15.5c0.6-0.2,1.5,0,2.3-0.1c1.4,5.7,3.3,10,7.6,12.6c1.2,0.7,3,1.5,5,1.7
	c6.1,0.5,10.5-4.4,8.7-10c-2.2-6.9-10.8-6.3-17-9.7c-2-1.1-3.7-2.7-4.8-4.9c-1-2-1.7-5-0.9-8c0.8-2.6,2.8-5.2,4.9-6.6
	c1.7-1.1,4.3-2.1,6.7-2.2c3.4-0.1,6.1,1.1,8.3,2.4c0.6,0.4,1.1,1.2,2.1,1.1C131.4,80.7,131.5,78.6,132.5,77.9z"/>
<path class="st0" d="M20.5,77.9c3.5,0,7.4,0,10.8,0c8,10.1,15.5,20.8,23.4,31.1c0.1-3.4,0.1-7.5,0.1-11.6c0-4.1,0.2-8.2,0-11.7
	c-0.2-3.7-2.4-5.5-6.4-5.4c0-0.7-0.1-1.7,0.1-2.3c5-0.1,9.9,0.1,14.9,0.1c0.2,0.6,0,1.5,0.1,2.3c-3.1,0.1-5.6,1.2-5.9,4.2
	c-0.3,2.7,0,5.8,0,8.9c0,8.6,0,18.5,0,26.8c-1,0-2.1,0.1-3-0.1C46.3,109.3,38.3,98.3,30,87.5c-0.1,5.7-0.1,13.7-0.1,20.4
	c0,2.8-0.4,6,0.6,7.7c1.1,1.9,3.3,2.2,6.1,2.5c0,0.8,0.1,1.6-0.1,2.2c-5.5,0-10.5,0.1-16,0.1c-0.2-0.6,0-1.5-0.1-2.2
	c3-0.2,6.1-0.9,6.5-3.9c0.2-1.2,0-2.6,0-3.9c0-7.5,0-15.4,0-23c0-1.3,0.2-2.8,0.1-3.8c-0.1-0.7-1.1-1.7-1.7-2.2
	c-1.3-0.9-3.3-0.9-4.9-1.1c0-0.9,0.1-1.5,0-2.2C20.4,78,20.5,78,20.5,77.9z"/>
<path class="st0" d="M65,78.1c10.3,0.4,21.7-1.2,28.8,2c3.4,1.5,6.2,4.2,8.3,7.2c2.1,3.2,3.2,7.2,3.2,12.2c0,9.6-4.8,16-11.6,19.1
	c-3.8,1.7-8.4,1.7-13.7,1.7c-5.1,0-10.1-0.1-15.2-0.1c-0.1-0.6-0.1-1.6,0-2.2c2.5-0.1,4.9-0.1,5.6-2.2c0.6-1.7,0.3-5.1,0.3-7.8
	c0-5.1,0-11,0.1-15.7c0-2.5,0.2-5.1-0.1-7.8c-0.2-1.8-1-3.3-2.5-3.8c-0.9-0.3-2.5-0.3-3.2-0.3c-0.1-0.6-0.1-1.4-0.1-2.1
	C64.9,78.2,64.9,78.1,65,78.1z M77.7,82.4c-0.4,0.9-0.4,2.5-0.4,3.9c0,8.9,0,16.8,0,25.8c0,1.5-0.1,3,0.3,4c0.7,1.5,2.6,1.8,4.5,1.9
	c4.5,0.4,8.4-0.4,10.9-2.5c1.7-1.4,2.7-3.3,3.4-5.6c1.4-4.5,1.3-11.4,0.9-16.7c-0.3-3-0.8-5.2-1.9-7.1c-2.2-3.7-6.1-5.9-12.4-5.6
	C80.6,80.7,78.6,80.6,77.7,82.4z"/>
<path class="st0" d="M179,78c0,0.6,0,1.6,0,2.4c-2.7,0.1-4.8,0.6-5.6,2.6c-0.5,1.2-0.3,3-0.3,4.6c0,4.9,0,9.7,0,14.6
	c0,3.2,0.4,6.8-0.3,9.5c-1.7,7.2-9.7,11.1-19.1,9.1c-5-1-9.5-3.9-11-8.5c-0.6-2-0.6-4.5-0.6-7.1c0-5.1-0.1-9.8-0.1-15.1
	c0-1.2,0.1-2.5,0-3.8c-0.1-2.7-0.1-4.9-2.2-5.6c-1.2-0.4-2.5-0.1-3.8-0.4c0-0.9,0-1.4,0-2.2c6.2,0,12.4,0,18.5,0
	c0,1.1,0,1.4-0.1,2.4c-2.8-0.1-4.9,0.1-5.7,1.9c-0.4,0.8-0.2,2.2-0.2,3.2c0.1,3.5,0,7.7,0,10.8c0,2.5,0,5,0.1,7.2
	c0,2.5-0.2,4.9,0.1,7.2c0.8,5.7,6.1,8.8,12.6,7.7c4-0.7,7.3-3.2,8.5-6.9c0.7-2.1,0.5-4.6,0.5-7.1c0-5-0.1-10-0.1-14.6
	c0-3.8,0.2-7.5-2.4-8.9c-1.1-0.6-2.5-0.4-4.1-0.7c0-0.8,0-1.5,0-2.3C168.9,78.1,174.4,77.8,179,78z"/>
</svg>
